<svg version="1.1" id="Layer_1" xmlns="http://www.w3.org/2000/svg" xmlns:xlink="http://www.w3.org/1999/xlink" x="0px" y="0px"
	 width="100%" viewBox="0 0 64 64" enable-background="new 0 0 64 64" xml:space="preserve">
<path fill="#FDFDFD" opacity="1.000000" stroke="none" 
	d="
M39.000011,65.000000 
	C26.024467,65.000000 13.548928,65.000000 1.036694,65.000000 
	C1.036694,43.732925 1.036694,22.465776 1.036694,1.099313 
	C22.224968,1.099313 43.450554,1.099313 64.838074,1.099313 
	C64.838074,22.332338 64.838074,43.666061 64.838074,65.000000 
	C56.466721,65.000000 47.983368,65.000000 39.000011,65.000000 
M17.850105,56.834850 
	C10.665356,56.728207 9.974732,56.016785 9.965192,48.702190 
	C9.960848,45.371902 10.113301,42.030170 9.865375,38.718277 
	C9.791001,37.724777 8.605285,36.814465 7.928703,35.866043 
	C7.282056,36.829933 6.117208,37.772808 6.077111,38.761299 
	C5.888314,43.415531 5.823018,48.092102 6.070271,52.741745 
	C6.311450,57.277157 9.451050,60.517906 14.208646,60.603298 
	C26.692787,60.827374 39.186493,60.839954 51.670284,60.608116 
	C56.858799,60.511765 59.812904,57.088943 59.981789,51.858334 
	C60.116062,47.699730 60.145817,43.526485 59.929951,39.374924 
	C59.867699,38.177578 58.794342,37.032803 58.184544,35.863926 
	C57.468342,37.107567 56.242043,38.308781 56.134396,39.603035 
	C55.845547,43.075859 56.060719,46.588726 56.029236,50.085270 
	C55.980179,55.534237 54.755779,56.796612 49.256962,56.821159 
	C39.099716,56.866508 28.942123,56.834721 17.850105,56.834850 
M40.324013,17.115967 
	C41.263275,18.056475 42.065563,19.237282 43.179115,19.872030 
	C44.367168,20.549248 45.849308,20.710546 47.203060,21.097073 
	C46.825684,19.856422 46.800556,18.291681 46.009373,17.431763 
	C42.749741,13.888950 39.384491,10.415260 35.768600,7.246469 
	C34.766727,6.368482 32.080059,5.847496 31.338028,6.498398 
	C27.225607,10.105766 23.398373,14.054637 19.677311,18.075209 
	C19.075583,18.725370 19.496056,20.321585 19.444023,21.480492 
	C20.458689,21.208456 21.775373,21.248344 22.435020,20.609646 
	C25.096071,18.033094 27.554386,15.247158 30.087570,12.538546 
	C31.176590,23.718914 31.105814,34.134830 31.263752,44.547283 
	C31.284111,45.889400 32.489799,47.213543 33.146404,48.546009 
	C33.804218,47.271801 34.902016,46.040169 35.030289,44.714710 
	C35.317043,41.751686 35.120876,38.741901 35.120941,35.751163 
	C35.121098,28.213949 35.120991,20.676737 35.120991,13.139523 
	C35.691795,12.783373 36.262600,12.427223 36.833405,12.071073 
	C37.827698,13.577387 38.821991,15.083701 40.324013,17.115967 
z"/>
<path fill="#121212" opacity="1.000000" stroke="none" 
	d="
M18.317390,56.834961 
	C28.942123,56.834721 39.099716,56.866508 49.256962,56.821159 
	C54.755779,56.796612 55.980179,55.534237 56.029236,50.085270 
	C56.060719,46.588726 55.845547,43.075859 56.134396,39.603035 
	C56.242043,38.308781 57.468342,37.107567 58.184544,35.863926 
	C58.794342,37.032803 59.867699,38.177578 59.929951,39.374924 
	C60.145817,43.526485 60.116062,47.699730 59.981789,51.858334 
	C59.812904,57.088943 56.858799,60.511765 51.670284,60.608116 
	C39.186493,60.839954 26.692787,60.827374 14.208646,60.603298 
	C9.451050,60.517906 6.311450,57.277157 6.070271,52.741745 
	C5.823018,48.092102 5.888314,43.415531 6.077111,38.761299 
	C6.117208,37.772808 7.282056,36.829933 7.928703,35.866043 
	C8.605285,36.814465 9.791001,37.724777 9.865375,38.718277 
	C10.113301,42.030170 9.960848,45.371902 9.965192,48.702190 
	C9.974732,56.016785 10.665356,56.728207 18.317390,56.834961 
z"/>
<path fill="#121212" opacity="1.000000" stroke="none" 
	d="
M40.070148,16.852991 
	C38.821991,15.083701 37.827698,13.577387 36.833405,12.071073 
	C36.262600,12.427223 35.691795,12.783373 35.120991,13.139523 
	C35.120991,20.676737 35.121098,28.213949 35.120941,35.751163 
	C35.120876,38.741901 35.317043,41.751686 35.030289,44.714710 
	C34.902016,46.040169 33.804218,47.271801 33.146404,48.546009 
	C32.489799,47.213543 31.284111,45.889400 31.263752,44.547283 
	C31.105814,34.134830 31.176590,23.718914 30.087570,12.538546 
	C27.554386,15.247158 25.096071,18.033094 22.435020,20.609646 
	C21.775373,21.248344 20.458689,21.208456 19.444023,21.480492 
	C19.496056,20.321585 19.075583,18.725370 19.677311,18.075209 
	C23.398373,14.054637 27.225607,10.105766 31.338028,6.498398 
	C32.080059,5.847496 34.766727,6.368482 35.768600,7.246469 
	C39.384491,10.415260 42.749741,13.888950 46.009373,17.431763 
	C46.800556,18.291681 46.825684,19.856422 47.203060,21.097073 
	C45.849308,20.710546 44.367168,20.549248 43.179115,19.872030 
	C42.065563,19.237282 41.263275,18.056475 40.070148,16.852991 
z"/>
</svg>